<svg width="18" height="18" viewBox="0 0 18 18" fill="none" xmlns="http://www.w3.org/2000/svg">
<path fill-rule="evenodd" clip-rule="evenodd" d="M9.00019 10.5915L12.9774 14.5687C13.1885 14.7798 13.4747 14.8984 13.7732 14.8984C14.0717 14.8984 14.3579 14.7798 14.5689 14.5687C14.78 14.3577 14.8986 14.0715 14.8986 13.773C14.8986 13.4745 14.78 13.1883 14.5689 12.9773L10.5902 9L14.5682 5.02275C14.6726 4.91825 14.7555 4.7942 14.812 4.65769C14.8685 4.52117 14.8976 4.37486 14.8975 4.22711C14.8975 4.07936 14.8684 3.93306 14.8118 3.79658C14.7552 3.66009 14.6723 3.53608 14.5678 3.43163C14.4633 3.32718 14.3393 3.24433 14.2028 3.18782C14.0662 3.13131 13.9199 3.10225 13.7722 3.10228C13.6244 3.10232 13.4781 3.13145 13.3416 3.18802C13.2052 3.2446 13.0811 3.3275 12.9767 3.432L9.00019 7.40925L5.02294 3.432C4.91921 3.3245 4.79512 3.23874 4.65789 3.17972C4.52066 3.12069 4.37306 3.08959 4.22368 3.08822C4.07431 3.08685 3.92615 3.11525 3.78787 3.17175C3.64958 3.22825 3.52394 3.31173 3.41826 3.4173C3.31258 3.52288 3.22899 3.64845 3.17236 3.78668C3.11572 3.92491 3.08719 4.07304 3.08842 4.22242C3.08964 4.37179 3.12061 4.51943 3.1795 4.65671C3.2384 4.79399 3.32404 4.91817 3.43144 5.022L7.41019 9L3.43219 12.978C3.32479 13.0818 3.23915 13.206 3.18025 13.3433C3.12136 13.4806 3.09039 13.6282 3.08917 13.7776C3.08794 13.927 3.11647 14.0751 3.17311 14.2133C3.22974 14.3515 3.31333 14.4771 3.41901 14.5827C3.52469 14.6883 3.65033 14.7718 3.78862 14.8283C3.9269 14.8848 4.07506 14.9131 4.22443 14.9118C4.37381 14.9104 4.52141 14.8793 4.65864 14.8203C4.79587 14.7613 4.91996 14.6755 5.02369 14.568L9.00019 10.5915Z" fill="#9C9C9C"/>
</svg>
